# xmcd
#
# Track frame offsets: 
#        187
#        35607
#        61665
#        71412
#        84750
#        93340
#        126392
#        166337
#        191275
#        212640
#        244122
#        292050
#
# Disc length: 4097 seconds
#
# Revision: 0
# Processed by: cddbd v1.4PL0 Copyright (c) Steve Scherf et al.
# Submitted via: ExactAudioCopy v0.95a3
#
DISCID=a10fff0c
DTITLE=W.A. Mozart - Eine kleine Nachtmusik - Serenade KV 361
DYEAR=1995
DGENRE=Classical
TTITLE0=Eine kleine Nachtmusik (Allegro)
TTITLE1=Eine kleine Nachtmusik (Romanze: Andante)
TTITLE2=Eine kleine Nachtmusik (Menuetto: Allegretto)
TTITLE3=Eine kleine Nachtmusik (Rondo: Allegro)
TTITLE4=Gran Partita (Largo)
TTITLE5=Gran Partita (Allegro molto)
TTITLE6=Gran Partita (Menuetto I)
TTITLE7=Gran Partita (Adagio)
TTITLE8=Gran Partita (Menuetto II)
TTITLE9=Gran Partita (Romanze)
TTITLE10=Gran Partita (Thema mit Variationen)
TTITLE11=Gran Partita (Rondo: Allegro molto)
EXTD=
EXTT0=
EXTT1=
EXTT2=
EXTT3=
EXTT4=
EXTT5=
EXTT6=
EXTT7=
EXTT8=
EXTT9=
EXTT10=
EXTT11=
PLAYORDER=
